PathFileType	4	(X/Y/Z)	Patient4_TMGait_0pt8_01_left_02.trc.trc
DataRate	CameraRate	NumFrames	NumMarkers	Units	OrigDataRate	OrigDataStartFrame	OrigNumFrames
86.419753086420	86.419753086420	4	33	mm	86.419753086420	53	       141
Frame#	Time	Sacral			L.Shoulder			Chest			R.Shoulder			Neck			R.ASIS			L.ASIS			R.Thigh.Superior			R.Thigh.Lateral			R.Thigh.Inferior			R.Patella			L.Thigh.Superior			L.Thigh.Lateral			L.Thigh.Inferior			L.Patella			L.Shank.Superior			L.Shank.Lateral			L.Shank.Inferior			R.Shank.Superior			R.Shank.Lateral			R.Shank.Inferior			R.Heel			R.Midfoot.Superior			R.Midfoot.Lateral			R.Toe			L.Heel			L.Midfoot.Lateral			L.Midfoot.Superior			L.Toe			L.Elbow			L.Wrist			R.Elbow			R.Wrist			
		X1	Y1	Z1	X2	Y2	Z2	X3	Y3	Z3	X4	Y4	Z4	X5	Y5	Z5	X6	Y6	Z6	X7	Y7	Z7	X8	Y8	Z8	X9	Y9	Z9	X10	Y10	Z10	X11	Y11	Z11	X12	Y12	Z12	X13	Y13	Z13	X14	Y14	Z14	X15	Y15	Z15	X16	Y16	Z16	X17	Y17	Z17	X18	Y18	Z18	X19	Y19	Z19	X20	Y20	Z20	X21	Y21	Z21	X22	Y22	Z22	X23	Y23	Z23	X24	Y24	Z24	X25	Y25	Z25	X26	Y26	Z26	X27	Y27	Z27	X28	Y28	Z28	X29	Y29	Z29	X30	Y30	Z30	X31	Y31	Z31	X32	Y32	Z32	X33	Y33	Z33	

53	1.891714285714	772.715773808705	1012.137631552005	413.372238868124	975.614629538228	1423.164697415969	215.456855012096	1062.948635821117	1363.446663751682	388.919819903596	968.787195190338	1452.109660186574	550.916510181926	961.086334136506	1496.104424078545	365.493825759076	996.857059737017	945.761623071767	537.153443523248	992.218293023013	965.102383427471	262.465674689297	1083.993278181521	785.459040141160	528.107138846074	1041.135539879743	665.993551189377	607.314127194493	1143.952188493391	629.166510274693	544.445096724128	1162.952264987107	514.317492539233	572.395956569560	1028.353773967517	754.836175432216	284.950972893430	933.689841852449	641.091408202131	230.456224347178	1021.621840693689	561.868335737948	286.955585041210	1020.127166331344	493.856733934459	295.379121682226	994.733001251229	422.508731128088	292.434551565453	901.606758953816	304.832628456196	255.817467651125	966.379700129632	197.638623149194	323.854506640889	1082.901203930157	440.279142786897	567.806168517134	951.724678123512	410.680147953594	610.638692930666	935.552318243400	303.114046060367	559.475090784172	735.870271494288	256.213018535222	504.463783955429	893.792622647970	187.092999558575	567.703447301409	780.804061362221	194.732863759172	585.631623388373	945.011355648215	70.289845085331	602.428124687517	846.707524666724	39.640773108379	382.517213229395	917.727080018965	34.631621609804	299.201634842324	1001.494645168283	98.104364204113	319.818107074355	1128.757316152459	47.821711781408	290.504053191734	1036.233143433584	1082.817163938428	88.958266248979	1180.287381728854	865.259365886848	83.198973943428	868.236947096015	1125.644254872891	681.800437939515	999.780125861988	901.617665020056	685.755785592765	
54	1.903285714286	771.187094047919	1012.030649521775	412.810081586409	975.340907906962	1422.993721175922	215.282654429729	1061.889612674612	1363.157031161974	389.053274010661	967.385404429227	1451.998379196226	550.723182651539	960.421927685699	1495.981470946143	365.190741400105	995.112767925860	945.931173430583	536.977202808390	991.100484139599	965.307940626499	262.169428718252	1084.250353590258	788.412856442223	527.811493191932	1043.790461341235	668.558334366943	607.677177782436	1146.736874781645	633.162301266478	544.180963955836	1168.449013715227	519.379168827714	572.596506589445	1025.254072191093	754.126440896113	285.319340948139	929.102460739803	641.220977961820	230.338136283291	1015.722754800109	560.998112227993	287.016464687996	1013.335793332637	493.115168430440	295.639274639609	987.642344844627	422.042699621787	292.579235462067	893.863972518703	304.950718598971	255.805671049570	957.776868011054	197.364832248503	323.970836877474	1091.165287761204	442.972614708829	569.011778824095	961.949705032855	407.683181750896	613.243481873678	950.229214802309	299.104234159281	562.828468519463	752.694143240832	243.003979794157	509.725600828391	913.731655839769	181.080730376742	572.493114123238	800.617032457098	184.091657102163	591.071184324779	969.924228604317	66.715256929056	607.550431356072	837.331732685496	39.630609680098	382.531742798282	908.410874509101	34.622846333091	299.222858410580	992.213000127153	98.027846200946	319.915680708622	1119.452372862364	47.726748359385	290.564666670270	1043.417167662122	1085.742682846634	86.527791671297	1197.497831037891	874.961303642105	80.650206990106	860.445322400769	1127.203914147752	680.925932596390	971.589114007712	892.013729159313	692.519132322944	
55	1.914857142857	769.680446677421	1011.820675887534	412.355872810447	975.112931310388	1422.682590391385	215.248713809925	1060.874607745903	1362.724614435747	389.327978709716	966.051481331654	1451.766438279286	550.671107640710	959.800755803532	1495.728699726362	365.017148940684	993.324923321295	945.898542052711	536.958167684131	989.999308199201	965.386813316526	262.045691595494	1084.136138233234	790.878977052978	527.530779535151	1045.934747662790	670.710894752623	607.939965703600	1148.775319686042	636.537256654619	543.611331207954	1173.128351071965	524.038170008080	572.517389391629	1022.235598062347	753.337159194219	285.647216919189	924.539832311039	641.300357213871	230.288598757505	1009.817986044847	560.098124643216	287.117282066215	1006.545229880792	492.347879982512	295.948498811562	980.555550858995	421.543144838202	292.770577663151	886.142452769062	305.041996535015	255.798018719691	949.161471697754	197.056663731791	324.111959262056	1098.861129291579	445.272548344851	570.037415826128	972.002667085975	403.987463404912	615.764132270560	965.223025364224	294.522680091693	566.187993486554	770.475583432059	228.425485053036	515.041068659921	934.549235470713	174.661331355603	577.406871010735	821.497706245140	172.601780073289	596.680526014241	996.118994717933	63.317116170942	613.129149385687	827.957282522758	39.609350520503	382.551394267901	899.087162004414	34.605282728386	299.241059997253	982.914296791400	97.949048668636	320.019317936739	1110.147419320419	47.630356203228	290.626540790975	1049.903553557775	1088.561029482479	84.321663944485	1213.773954680029	885.074501885064	78.506978107515	853.194206358114	1128.741889145630	680.275956719474	943.387428226865	884.649227742425	698.988360078080	
56	1.926428571429	768.212829461448	1011.543858948082	412.018251139839	974.940982099923	1422.254551702197	215.366959778083	1059.920447120099	1362.169415719492	389.752338607671	964.799158810811	1451.422697571955	550.773445548752	959.236924354895	1495.363312977199	364.991547105873	991.516544971365	945.674943169822	537.088569934642	988.921461811186	965.352404388977	262.092174230360	1083.641416348841	792.833150095716	527.240911826782	1047.543884658896	672.424923455135	608.098939681333	1150.056343502172	639.259822832104	542.759254441808	1176.961763548428	528.256651506564	572.178511281866	1019.277670599007	752.472248157488	285.945023456380	919.981088260894	641.344774495971	230.311947641436	1003.884878196709	559.174308803328	287.263858623034	999.730780040748	491.563708019264	296.311511513867	973.451902808751	421.023920997244	293.010930383554	878.424511584108	305.115475187951	255.796404078069	940.530387851110	196.724774883069	324.277758011571	1105.950791836768	447.199884167109	570.893704397468	981.868436961667	399.722992640903	618.152042165150	980.484959602457	289.568714773303	569.490160486449	789.273310131342	212.866620354733	520.268565412041	956.128933121151	168.125688357029	582.345892368534	843.386722539886	160.628259550865	602.316615687756	1023.331969993255	60.407096311545	619.035810404171	818.589142586924	39.578985311613	382.572055625814	889.755191691588	34.580838290223	299.254670790435	973.601017207522	97.872012685547	320.125193785290	1100.842074818615	47.535007829802	290.683994519967	1055.681340630489	1091.232108964871	82.340527117771	1229.040490507728	895.528942809627	76.761087546406	846.350431632965	1130.317338092760	679.859980059640	915.564221277387	879.559781913996	705.099897830283	
